<?xml version="1.0" encoding="utf-8"?>
<!-- Generator: Adobe Illustrator 25.2.1, SVG Export Plug-In . SVG Version: 6.00 Build 0)  -->
<svg version="1.1" xmlns="http://www.w3.org/2000/svg" xmlns:xlink="http://www.w3.org/1999/xlink" x="0px" y="0px"
	 viewBox="0 0 1600 900" style="enable-background:new 0 0 1600 900;" xml:space="preserve">
<style type="text/css">
	.st0{fill:#FFFFFF;}
	.st1{fill:#40A1CF;}
	.st2{fill:#5A2D83;}
	.st3{fill:#90BF3F;}
	.st4{fill:#1E478B;}
</style>
<g id="All_white_loop">
	<g>
		<path class="st0" d="M653,843.1l-0.4,2.5l1.8,0.3l-0.3,1.7l-1.8-0.3l-1,5.8c-0.1,0.4,0,0.7,0.1,0.9c0.1,0.2,0.4,0.3,0.8,0.4
			c0.3,0,0.5,0.1,0.8,0l-0.3,1.8c-0.6,0.1-1.1,0-1.6,0c-1.8-0.3-2.5-1.4-2.2-3.4l1-5.9l-1.7-0.3l0.3-1.7l1.7,0.3l0.4-2.5L653,843.1z
			"/>
		<path class="st0" d="M659.9,857.3c-1.5-0.1-2.7-0.7-3.5-1.7c-0.9-1-1.2-2.3-1.1-3.9l0-0.3c0.1-1.1,0.3-2,0.8-2.8
			c0.5-0.8,1.1-1.4,1.9-1.8s1.6-0.6,2.5-0.5c1.4,0.1,2.5,0.6,3.2,1.6c0.7,1,1,2.3,0.9,4l-0.1,1l-6.9-0.5c0,0.9,0.2,1.6,0.7,2.1
			c0.5,0.5,1.1,0.8,1.9,0.9c1.1,0.1,2-0.3,2.7-1.1l1.2,1.3c-0.5,0.6-1.1,1-1.8,1.3C661.6,857.2,660.8,857.3,659.9,857.3z
			 M660.3,848.2c-0.6,0-1.2,0.1-1.6,0.6c-0.4,0.4-0.7,1-0.9,1.8l4.5,0.3l0-0.2c0-0.8-0.2-1.4-0.5-1.8
			C661.4,848.5,660.9,848.3,660.3,848.2z"/>
		<path class="st0" d="M672.8,854.3c0-0.4-0.2-0.7-0.6-0.9c-0.4-0.2-0.9-0.4-1.8-0.5c-0.8-0.1-1.5-0.3-2-0.6
			c-1.2-0.5-1.8-1.3-1.9-2.4c0-0.9,0.3-1.7,1.1-2.3c0.7-0.6,1.7-1,2.9-1c1.3,0,2.3,0.2,3.1,0.8c0.8,0.6,1.2,1.4,1.3,2.4l-2.4,0.1
			c0-0.5-0.2-0.8-0.6-1.1c-0.4-0.3-0.8-0.4-1.4-0.4c-0.5,0-0.9,0.2-1.3,0.4c-0.3,0.3-0.5,0.6-0.5,1c0,0.4,0.2,0.6,0.5,0.8
			c0.3,0.2,0.9,0.4,1.9,0.5c0.9,0.2,1.7,0.4,2.2,0.6c0.5,0.3,0.9,0.6,1.2,1c0.3,0.4,0.4,0.9,0.4,1.4c0,1-0.3,1.7-1.1,2.4
			c-0.8,0.6-1.8,1-3.1,1c-0.9,0-1.6-0.1-2.3-0.4c-0.7-0.3-1.2-0.7-1.6-1.2s-0.6-1.1-0.6-1.7l2.3-0.1c0.1,0.6,0.3,1,0.7,1.3
			c0.4,0.3,0.9,0.4,1.6,0.4c0.6,0,1.1-0.2,1.4-0.4C672.6,855,672.8,854.7,672.8,854.3z"/>
		<path class="st0" d="M679.3,843.3l0.3,2.5l1.9-0.2l0.2,1.7l-1.8,0.2l0.8,5.8c0.1,0.4,0.2,0.7,0.4,0.8c0.2,0.2,0.5,0.2,0.9,0.2
			c0.3,0,0.5-0.1,0.8-0.2l0.2,1.8c-0.5,0.2-1,0.4-1.5,0.4c-1.8,0.2-2.8-0.6-3.1-2.6l-0.8-5.9l-1.7,0.2l-0.2-1.7l1.7-0.2l-0.3-2.5
			L679.3,843.3z"/>
	</g>
	<g>
		<path class="st0" d="M891.2,838.8l-0.3,1.1c1-0.6,2.1-0.6,3.3-0.2c1.3,0.5,2.1,1.3,2.2,2.5c1.1-0.8,2.3-0.9,3.6-0.4
			c1.1,0.4,1.8,1,2.1,1.8c0.3,0.8,0.3,1.8-0.1,3l-2.4,6.5l-2.2-0.8l2.3-6.5c0.2-0.6,0.3-1.1,0.1-1.5c-0.2-0.4-0.6-0.7-1.2-0.9
			c-0.5-0.2-1-0.2-1.4,0c-0.4,0.2-0.8,0.4-1.1,0.8l-2.5,6.8l-2.2-0.8l2.4-6.5c0.4-1.2,0-2-1.2-2.4c-0.9-0.3-1.7-0.2-2.3,0.4
			l-2.6,7.2l-2.2-0.8l3.6-9.9L891.2,838.8z"/>
		<path class="st0" d="M903.8,848.6c0.2-1,0.6-1.9,1.2-2.6c0.6-0.7,1.3-1.2,2.1-1.5c0.8-0.3,1.7-0.3,2.6-0.1c1.4,0.3,2.4,1,3.1,2.1
			c0.7,1.1,0.9,2.4,0.6,3.9l-0.1,0.5c-0.2,1-0.6,1.9-1.2,2.6c-0.6,0.7-1.3,1.2-2.1,1.5c-0.8,0.3-1.7,0.3-2.7,0.1
			c-1.5-0.3-2.5-1-3.2-2.2c-0.7-1.2-0.8-2.5-0.5-4.2L903.8,848.6z M906.1,849.3c-0.2,1.1-0.2,1.9,0.1,2.6s0.9,1.1,1.6,1.3
			s1.5,0,2-0.5c0.6-0.5,1-1.4,1.2-2.5c0.2-1,0.2-1.9-0.1-2.6c-0.3-0.7-0.9-1.1-1.6-1.3c-0.8-0.2-1.4,0-2,0.5
			C906.7,847.2,906.3,848.1,906.1,849.3z"/>
		<path class="st0" d="M918.5,846l-0.1,1.2c0.9-0.9,1.9-1.2,3.2-1.1c2.2,0.2,3.2,1.6,3,4.1l-0.7,6.9l-2.4-0.2l0.7-6.8
			c0.1-0.7,0-1.2-0.3-1.5c-0.3-0.3-0.7-0.6-1.4-0.6c-1-0.1-1.7,0.3-2.3,1.1l-0.8,7.5l-2.4-0.2l1.1-10.5L918.5,846z"/>
		<path class="st0" d="M929.5,857.3l-2.4-0.1l0.3-10.6l2.4,0.1L929.5,857.3z M927.3,844c0-0.4,0.1-0.7,0.4-0.9s0.6-0.3,1-0.3
			c0.4,0,0.8,0.1,1,0.4c0.2,0.2,0.3,0.6,0.3,0.9c0,0.4-0.1,0.7-0.4,0.9c-0.2,0.2-0.6,0.3-1,0.3c-0.4,0-0.8-0.1-1-0.4
			C927.4,844.6,927.3,844.3,927.3,844z"/>
		<path class="st0" d="M935.1,844.1l0.1,2.6l1.9-0.1l0.1,1.8l-1.9,0.1l0.2,5.9c0,0.4,0.1,0.7,0.3,0.9c0.2,0.2,0.5,0.3,0.9,0.2
			c0.3,0,0.5,0,0.8-0.1l0.1,1.8c-0.5,0.2-1.1,0.3-1.6,0.3c-1.8,0.1-2.8-0.9-2.8-2.9l-0.2-6l-1.7,0.1l-0.1-1.8l1.7-0.1l-0.1-2.6
			L935.1,844.1z"/>
		<path class="st0" d="M938.5,851.8c-0.1-1,0-2,0.3-2.8c0.3-0.9,0.8-1.6,1.5-2.1c0.7-0.5,1.5-0.8,2.5-1c1.4-0.2,2.6,0.2,3.6,1
			c1,0.8,1.6,2,1.8,3.5l0.1,0.6c0.1,1,0,2-0.3,2.8c-0.3,0.9-0.8,1.6-1.5,2.1c-0.7,0.5-1.5,0.9-2.5,1c-1.5,0.2-2.7-0.2-3.7-1.1
			c-1-0.9-1.6-2.1-1.8-3.8L938.5,851.8z M940.9,851.8c0.1,1.1,0.4,1.9,1,2.5c0.5,0.6,1.2,0.8,2,0.7c0.8-0.1,1.4-0.5,1.8-1.1
			c0.4-0.7,0.5-1.6,0.4-2.8c-0.1-1.1-0.4-1.9-1-2.4c-0.5-0.6-1.2-0.8-2-0.7c-0.8,0.1-1.3,0.5-1.7,1.1
			C940.9,849.6,940.8,850.5,940.9,851.8z"/>
		<path class="st0" d="M955.4,846.2c-0.3,0-0.6,0-1,0.1c-1.1,0.2-1.7,0.8-1.9,1.7l1.4,7.1l-2.3,0.5l-2.1-10.4l2.2-0.5l0.3,1.1
			c0.4-1,1.1-1.6,2.1-1.8c0.3-0.1,0.6-0.1,0.9,0L955.4,846.2z"/>
	</g>
	<g>
		<path class="st1" d="M1080.8,631.3c-2-0.4-11.2-2.7-13.1-3.2c-36.5-10-69.4-31.9-93-58.3c-5-5.7-13.4-14-17.7-20.2l-30.3-37.3
			l-73.1,3.9l-4.4,74.1l14.1,16.4l21.2,24.4l0,0.1c8.9,11.3,18.6,21.9,29,31.7v0c0,0,0.1,0.1,0.1,0.1c39.9,37.7,98,66.4,155.7,76.8
			l-47.5-65.4L1080.8,631.3z"/>
		<path class="st1" d="M836.3,575.2L799,531.6l-0.3,0.4l-72.4-83.5l0.5-0.6l-95.2-111c-0.6-0.8-1.2-1.7-1.9-2.5l-0.9-1.1l-3.5-73.4
			l79.3-3.7L798.9,365l0.2-0.2l108.2,124.8l7.7,9.8l-74.6,3.4L836.3,575.2z"/>
		<path class="st2" d="M383.8,296.9c29.3-19.7,64.5-31.2,102.4-31.2c49.9,0,95.1,20,128.3,52.3l-3.3-70.3l82.4-3.9l-1.2-1.4
			c-52.9-52.6-125.8-85.2-206.1-85.2c-66.6,0-128.1,22.4-177.3,60l-5,74.3L383.8,296.9z"/>
		<g>
			<path class="st0" d="M702.2,342.2c-3,2.4-6,3.6-8.8,3.6c-2.9,0.1-5.2-1.1-7-3.4c-1.7-2.1-2.3-4.4-1.9-6.8l-9.2,7.3l-3.5-4.4
				l26.9-21.3l3.2,4l-1.8,1.7c2.6,0,4.7,1.2,6.5,3.4c1.9,2.4,2.5,4.9,1.8,7.7c-0.7,2.7-2.6,5.4-5.8,7.8L702.2,342.2z M699.2,337.5
				c1.9-1.5,3.2-3.1,3.7-4.8c0.5-1.7,0.2-3.2-0.9-4.7c-1.4-1.8-3.2-2.5-5.3-2.1l-8.6,6.8c-0.9,2-0.6,3.9,0.8,5.7
				c1.1,1.4,2.5,2,4.3,1.9C694.9,340.3,696.9,339.3,699.2,337.5z"/>
			<path class="st0" d="M699.3,358.1l-3.5-4.4l27.6-21.8l3.5,4.4L699.3,358.1z"/>
			<path class="st0" d="M712.2,374.4c0.2-0.5,0.7-1.1,1.4-1.9c-2.5-0.2-4.6-1.4-6.2-3.4c-1.5-2-2.2-4-2.1-6.1c0.1-2.1,1-3.8,2.7-5.1
				c2.1-1.6,4.3-2.1,6.6-1.5s4.6,2.4,6.9,5.3l2.1,2.7l1.3-1c1-0.8,1.6-1.7,1.8-2.8s-0.2-2.1-1.1-3.3c-0.8-1-1.7-1.6-2.7-1.9
				c-1-0.2-1.9-0.1-2.6,0.5l-3.5-4.4c1.1-0.8,2.3-1.3,3.8-1.3c1.5,0,3,0.4,4.5,1.2c1.5,0.8,2.8,1.9,4,3.4c1.8,2.3,2.7,4.5,2.6,6.8
				c-0.1,2.3-1.1,4.2-3.2,5.9l-8.8,6.9c-1.8,1.4-3,2.7-3.6,4l-0.3,0.2L712.2,374.4z M711.6,367.2c0.7,0.9,1.5,1.5,2.6,1.9
				c1,0.4,2,0.6,3,0.4l3.7-2.9l-1.9-2.4c-1.3-1.6-2.5-2.6-3.7-3c-1.2-0.4-2.3-0.1-3.4,0.7c-0.8,0.7-1.3,1.5-1.3,2.4
				C710.5,365.3,710.8,366.2,711.6,367.2z"/>
			<path class="st0" d="M741.5,371.4l-2.1,1.9c2.9,0.1,5.2,1.3,7.1,3.6c3.2,4.1,2.5,7.9-2.1,11.7l-12.9,10.2l-3.5-4.4l12.6-10
				c1.2-1,1.9-2,2.1-3c0.2-1-0.2-2.1-1.2-3.3c-1.4-1.8-3.2-2.4-5.5-2L722.2,387l-3.5-4.4l19.5-15.4L741.5,371.4z"/>
		</g>
		<g>
			<path class="st0" d="M702.2,342.2c-3,2.4-6,3.6-8.8,3.6c-2.9,0.1-5.2-1.1-7-3.4c-1.7-2.1-2.3-4.4-1.9-6.8l-9.2,7.3l-3.5-4.4
				l26.9-21.3l3.2,4l-1.8,1.7c2.6,0,4.7,1.2,6.5,3.4c1.9,2.4,2.5,4.9,1.8,7.7c-0.7,2.7-2.6,5.4-5.8,7.8L702.2,342.2z M699.2,337.5
				c1.9-1.5,3.2-3.1,3.7-4.8c0.5-1.7,0.2-3.2-0.9-4.7c-1.4-1.8-3.2-2.5-5.3-2.1l-8.6,6.8c-0.9,2-0.6,3.9,0.8,5.7
				c1.1,1.4,2.5,2,4.3,1.9C694.9,340.3,696.9,339.3,699.2,337.5z"/>
			<path class="st0" d="M699.3,358.1l-3.5-4.4l27.6-21.8l3.5,4.4L699.3,358.1z"/>
			<path class="st0" d="M712.2,374.4c0.2-0.5,0.7-1.1,1.4-1.9c-2.5-0.2-4.6-1.4-6.2-3.4c-1.5-2-2.2-4-2.1-6.1c0.1-2.1,1-3.8,2.7-5.1
				c2.1-1.6,4.3-2.1,6.6-1.5s4.6,2.4,6.9,5.3l2.1,2.7l1.3-1c1-0.8,1.6-1.7,1.8-2.8s-0.2-2.1-1.1-3.3c-0.8-1-1.7-1.6-2.7-1.9
				c-1-0.2-1.9-0.1-2.6,0.5l-3.5-4.4c1.1-0.8,2.3-1.3,3.8-1.3c1.5,0,3,0.4,4.5,1.2c1.5,0.8,2.8,1.9,4,3.4c1.8,2.3,2.7,4.5,2.6,6.8
				c-0.1,2.3-1.1,4.2-3.2,5.9l-8.8,6.9c-1.8,1.4-3,2.7-3.6,4l-0.3,0.2L712.2,374.4z M711.6,367.2c0.7,0.9,1.5,1.5,2.6,1.9
				c1,0.4,2,0.6,3,0.4l3.7-2.9l-1.9-2.4c-1.3-1.6-2.5-2.6-3.7-3c-1.2-0.4-2.3-0.1-3.4,0.7c-0.8,0.7-1.3,1.5-1.3,2.4
				C710.5,365.3,710.8,366.2,711.6,367.2z"/>
			<path class="st0" d="M741.5,371.4l-2.1,1.9c2.9,0.1,5.2,1.3,7.1,3.6c3.2,4.1,2.5,7.9-2.1,11.7l-12.9,10.2l-3.5-4.4l12.6-10
				c1.2-1,1.9-2,2.1-3c0.2-1-0.2-2.1-1.2-3.3c-1.4-1.8-3.2-2.4-5.5-2L722.2,387l-3.5-4.4l19.5-15.4L741.5,371.4z"/>
		</g>
		<g>
			<path class="st0" d="M891,537.6l-2.1,2c3,0,5.7,1.3,7.9,4c2.5,2.9,3.1,5.8,1.8,8.7c3.5-0.3,6.5,1,8.9,3.8c2,2.4,2.9,4.7,2.6,7
				c-0.3,2.3-1.7,4.5-4.2,6.7l-13.8,11.9l-4.2-4.8l13.7-11.8c1.3-1.2,2.1-2.3,2.2-3.4c0.1-1.1-0.4-2.4-1.6-3.8
				c-0.9-1.1-2-1.7-3.2-1.9c-1.2-0.2-2.4,0-3.5,0.5l-14.4,12.5l-4.2-4.8l13.9-11.9c2.4-2.2,2.5-4.6,0.4-7.1
				c-1.7-1.9-3.6-2.6-5.9-2.1L870.2,556l-4.2-4.8l21.1-18.1L891,537.6z"/>
			<path class="st0" d="M906.7,576.4c2-1.8,4.2-3.1,6.5-3.8c2.4-0.7,4.6-0.7,6.8,0c2.2,0.7,4.2,2,5.9,3.9c2.6,2.8,3.8,5.9,3.6,9.3
				c-0.2,3.4-1.6,6.5-4.4,9.4l-1.1,1c-2,1.9-4.2,3.1-6.5,3.8c-2.3,0.7-4.6,0.7-6.8,0c-2.2-0.7-4.2-2-6-3.9c-2.7-2.9-3.9-6.2-3.6-9.7
				c0.3-3.5,2-6.8,5.2-9.7L906.7,576.4z M910.6,581.5c-2.1,1.9-3.3,3.9-3.7,5.9c-0.4,2,0.2,3.8,1.6,5.3c1.5,1.6,3.2,2.3,5.2,2
				s4.2-1.4,6.5-3.6c2.1-1.9,3.3-3.9,3.7-5.9c0.4-2-0.2-3.8-1.6-5.4c-1.4-1.5-3.1-2.2-5.1-2C915.2,578.1,913,579.3,910.6,581.5z"/>
			<path class="st0" d="M942.3,594.5l-2.2,2.4c3.2-0.2,6.1,0.8,8.4,3.3c4.1,4.2,3.9,8.7-0.8,13.4l-13.1,12.9l-4.5-4.5l12.8-12.6
				c1.3-1.2,1.9-2.4,2-3.6c0.1-1.1-0.5-2.4-1.8-3.6c-1.8-1.8-4-2.4-6.5-1.7l-14.1,13.9l-4.5-4.5l19.8-19.5L942.3,594.5z"/>
			<path class="st0" d="M944.7,636l-4.6-4.4l19.2-20.1l4.6,4.4L944.7,636z M964,606c0.7-0.7,1.4-1.1,2.3-1.1c0.9,0,1.7,0.4,2.6,1.2
				c0.8,0.8,1.3,1.6,1.3,2.5c0,0.9-0.3,1.7-1,2.4c-0.7,0.7-1.4,1-2.3,1c-0.9,0-1.7-0.4-2.6-1.2c-0.8-0.8-1.3-1.6-1.3-2.5
				C963,607.4,963.4,606.6,964,606z"/>
			<path class="st0" d="M979.3,620.8l-4.5,5l3.7,3.4l-3.1,3.4l-3.7-3.4l-10.4,11.5c-0.7,0.8-1.1,1.5-1.1,2.1c0,0.6,0.4,1.3,1.2,2.1
				c0.5,0.5,1.2,0.9,1.8,1.3l-3.2,3.6c-1.3-0.7-2.5-1.5-3.5-2.4c-3.6-3.3-3.7-6.9-0.1-10.8l10.6-11.7l-3.5-3.1l3.1-3.4l3.5,3.1
				l4.5-5L979.3,620.8z"/>
			<path class="st0" d="M971.5,641.4c1.7-2.1,3.7-3.7,5.9-4.7c2.2-1,4.5-1.3,6.8-1c2.3,0.3,4.4,1.3,6.4,2.9c3,2.4,4.6,5.3,5,8.7
				c0.3,3.4-0.7,6.7-3,9.9l-0.9,1.2c-1.7,2.1-3.7,3.7-5.9,4.7s-4.4,1.3-6.7,1c-2.3-0.3-4.5-1.3-6.5-3c-3.1-2.5-4.8-5.5-5-9.1
				c-0.2-3.5,1-7,3.8-10.4L971.5,641.4z M976.1,645.9c-1.8,2.2-2.7,4.3-2.8,6.4c-0.1,2,0.7,3.7,2.4,5.1c1.7,1.3,3.5,1.8,5.5,1.2
				c2-0.5,3.9-2,5.9-4.5c1.8-2.2,2.7-4.3,2.8-6.4c0.1-2.1-0.7-3.7-2.4-5.1c-1.6-1.3-3.4-1.7-5.4-1.2
				C980.2,641.9,978.2,643.4,976.1,645.9z"/>
			<path class="st0" d="M1013.7,662.9c-0.6-0.6-1.3-1.1-2-1.6c-2.4-1.6-4.7-1.8-6.7-0.5l-10.5,15.8l-5.3-3.5l15.4-23.2l5.1,3.4
				l-1.6,2.7c2.6-1.2,5.1-1,7.3,0.5c0.8,0.5,1.3,1,1.7,1.5L1013.7,662.9z"/>
		</g>
		<path class="st2" d="M389.7,606.5c-20.2-12.4-38-28.7-52.4-48.4c-0.3-0.4-0.6-0.8-0.8-1.2c-1.2-1.7-2.4-3.4-3.6-5.2
			c0,0,0-0.1-0.1-0.1c-6.8-10.2-12.6-21.3-17.4-33.2l-0.1,0c-8.6-21.2-13.3-44.4-13.3-68.7c0-55.8,25-105.8,64.3-139.6l-77.8-5.2
			l5-75.2c-61.2,53.7-99.9,132.4-99.9,220c0,56.5,16.1,109.3,44,154.1c0.2,0.3,0.4,0.6,0.6,0.9c1.8,2.9,3.7,5.8,5.6,8.6
			c0.7,1.1,1.5,2.1,2.2,3.2c1.4,2.1,2.9,4.1,4.4,6.1c1.1,1.6,2.3,3.1,3.5,4.6c0.6,0.8,1.3,1.6,1.9,2.4c24,30.7,53.6,55.9,86.7,74.6
			l72.5-24.9L389.7,606.5z"/>
		<g>
			<path class="st3" d="M486.1,742.5c0.6,0,1.2,0,1.8,0c-1.3,0-2.7,0-4,0C484.7,742.4,485.4,742.5,486.1,742.5z"/>
			<path class="st3" d="M487.5,633.9c2.4,0,4.8-0.1,7.1-0.2C492.3,633.9,489.9,633.9,487.5,633.9z"/>
			<path class="st3" d="M481.1,742.4c-2.1,0-4.1-0.1-6.2-0.2C477,742.3,479,742.4,481.1,742.4z"/>
			<path class="st3" d="M494.3,742.3c-0.8,0-1.5,0-2.3,0.1C492.8,742.4,493.6,742.4,494.3,742.3z"/>
			<path class="st3" d="M500.5,742.1c-0.2,0-0.5,0-0.7,0C500,742.1,500.3,742.1,500.5,742.1z"/>
			<path class="st3" d="M485.2,634c-2.2,0-4.3-0.1-6.5-0.2C480.9,633.9,483,633.9,485.2,634z"/>
			<path class="st1" d="M492,742.4c-1.3,0-2.7,0-4,0C489.3,742.4,490.7,742.4,492,742.4z"/>
			<path class="st1" d="M499.8,742.1c-1.8,0.1-3.6,0.1-5.4,0.2C496.1,742.3,498,742.2,499.8,742.1z"/>
			<path class="st1" d="M408.5,616.6l0,0.1c21.5,10,45.2,16.1,70.2,17.1C454.3,632.7,430.4,626.8,408.5,616.6z"/>
			<path class="st1" d="M494.6,633.8c0.2,0,0.4,0,0.6,0C495,633.8,494.8,633.8,494.6,633.8z"/>
			<path class="st1" d="M487.5,633.9c-0.8,0-1.5,0-2.3,0c0.3,0,0.7,0,1,0C486.6,634,487,634,487.5,633.9z"/>
			<path class="st1" d="M474.9,742.2C474.9,742.2,474.8,742.2,474.9,742.2C474.8,742.2,474.9,742.2,474.9,742.2z"/>
			<path class="st1" d="M484,742.4c-1,0-2,0-2.9,0C482,742.4,483,742.4,484,742.4z"/>
			<path class="st3" d="M893,260L622.8,571.8L607.7,588c-30.3,26.7-69.5,43.6-112.4,45.7c-0.2,0-0.4,0-0.6,0
				c-2.4,0.1-4.8,0.2-7.1,0.2c-0.4,0-0.9,0-1.3,0c-0.3,0-0.7,0-1,0c-2.2,0-4.3-0.1-6.5-0.2c-25-1-48.7-7-70.2-17.1l24.7,71.8
				l-73.1,25.2c35.7,17,74.7,26.9,114.7,28.5c0,0,0.1,0,0.1,0c2.1,0.1,4.1,0.1,6.2,0.2c1,0,2,0,2.9,0c1.3,0,2.7,0,4,0
				c1.3,0,2.7,0,4,0c0.8,0,1.5,0,2.3-0.1c1.8-0.1,3.6-0.1,5.4-0.2c0.2,0,0.5,0,0.7,0c31.7-1.5,63.7-8.2,94.8-20.7l0-0.1
				c31.5-12.7,60.2-30.7,85.2-53l13.8-14.5l61.9-70.9l43-50.1l0.4,0.5l72.8-83.5l-0.6-0.7L964.4,341c1.2-1.6,2.4-3.2,3.6-4.8
				l1.1-75.1L893,260z"/>
		</g>
		<path class="st4" d="M1225.4,178.7c-36.3-14.9-75.1-22.2-113.8-21.8l-1.5,0.1l0.4,0.4c-80.2,0.9-152.8,34.3-205.1,87.6l-1,1.1
			l80.4,1.2l-1.1,72.7c33.3-33.5,79.4-54.2,130.3-54.2c25.5,0,49.8,5.2,71.9,14.7l58.2-31L1225.4,178.7z"/>
		<path class="st4" d="M1203.4,289.1c8,4.5,15.6,9.5,22.8,15.1l15.1,13c34.3,33,55.8,79,56.5,130c0,0-0.9,36.3-8.8,59.3l28.2,65.7
			l75.3-33.5c9-28.1,13.8-58,13.8-89c0-14.4-2.9-42.7-2.9-42.7c-8.7-60.3-36.2-118.4-82.5-164.8c-22.8-22.8-48.4-41-75.7-54.7
			l16.7,70.2L1203.4,289.1z"/>
		<path class="st1" d="M1283.9,520.5"/>
		<path class="st4" d="M1385.7,558.1c-14.2,36.2-36,70.2-65.2,99.4c-49.9,49.9-113.4,77.9-178.6,84.2c0,0-35.8,3.2-55.3,0
			l-46.6-64.8l58.6-43c3.8,0.3,8.4,0.1,15.3,0.1c49.8,0,95.3-19.3,128.4-51.6c0,0,0.9-1,1.5-1.6c4.3-4.3,8.2-8.7,12-13.3l0-0.5
			c10.4-12.6,19.2-26.6,26-41.7l28.6,66L1385.7,558.1z"/>
		<g>
			<path class="st0" d="M427.4,237.2c1.3-0.4,2.3-1.1,3-2.1c0.6-1,0.8-2.1,0.6-3.3l5-1.5c0.4,1.5,0.3,3-0.2,4.6
				c-0.5,1.5-1.4,2.9-2.6,4.1c-1.3,1.2-2.7,2-4.5,2.5c-3.3,1-6.3,0.7-8.9-0.9c-2.6-1.6-4.4-4.3-5.6-8.1l-0.2-0.6
				c-1.1-3.6-1-6.8,0.3-9.6c1.3-2.7,3.6-4.6,7-5.6c2.8-0.8,5.4-0.7,7.6,0.4c2.3,1.1,3.8,3,4.7,5.7l-5,1.5c-0.5-1.3-1.3-2.3-2.4-3
				c-1.1-0.6-2.4-0.7-3.7-0.3c-1.7,0.5-2.9,1.5-3.4,3.1c-0.6,1.5-0.5,3.6,0.3,6.1l0.3,0.9c0.8,2.6,1.8,4.4,3.1,5.4
				C424.1,237.5,425.7,237.8,427.4,237.2z"/>
			<path class="st0" d="M438.4,225.2c-0.4-2.4-0.3-4.6,0.3-6.7c0.6-2.1,1.7-3.8,3.2-5.1c1.5-1.3,3.4-2.2,5.7-2.6
				c3.3-0.6,6.2,0,8.6,1.8c2.4,1.8,4,4.4,4.8,7.9l0.2,1.3c0.4,2.4,0.3,4.6-0.3,6.7c-0.6,2.1-1.7,3.7-3.2,5.1
				c-1.5,1.3-3.5,2.2-5.7,2.6c-3.4,0.6-6.4-0.1-8.9-2c-2.5-1.9-4-4.8-4.7-8.7L438.4,225.2z M444,224.7c0.4,2.5,1.3,4.4,2.6,5.6
				c1.3,1.2,2.8,1.7,4.7,1.4c1.9-0.3,3.2-1.3,4-2.9c0.8-1.6,0.9-3.8,0.5-6.6c-0.4-2.5-1.3-4.3-2.6-5.6c-1.3-1.3-2.9-1.7-4.7-1.4
				c-1.8,0.3-3.1,1.3-3.9,2.9C443.7,219.7,443.5,221.9,444,224.7z"/>
			<path class="st0" d="M465.4,220.9c-0.2-3.8,0.6-6.9,2.2-9.3c1.7-2.4,4-3.7,7-3.8c2.6-0.1,4.8,0.7,6.5,2.4l-0.6-12.7l5.6-0.3
				l1.7,35.2l-5,0.2l-0.4-2.6c-1.6,2.1-3.7,3.2-6.5,3.3c-2.9,0.1-5.3-0.9-7.2-3.2C466.6,228.1,465.6,224.9,465.4,220.9z M471,221.1
				c0.1,2.5,0.7,4.5,1.7,5.8c1,1.4,2.4,2,4.2,1.9c2.3-0.1,3.9-1.2,4.8-3.3l-0.5-10.6c-1.1-1.9-2.8-2.8-5.1-2.7
				c-1.8,0.1-3.2,0.9-4.1,2.3C471.2,216.1,470.8,218.3,471,221.1z"/>
			<path class="st0" d="M503.4,233.7c-3.5-0.2-6.3-1.6-8.3-3.9c-2-2.4-2.9-5.4-2.7-9.1l0-0.7c0.2-2.5,0.8-4.6,1.9-6.5
				c1.1-1.9,2.5-3.3,4.3-4.3c1.8-1,3.8-1.4,5.9-1.2c3.4,0.2,5.9,1.5,7.6,3.8c1.7,2.3,2.4,5.4,2.1,9.3l-0.2,2.2l-16.2-1.1
				c0,2.1,0.6,3.7,1.7,5c1.1,1.3,2.6,2,4.4,2.1c2.5,0.2,4.7-0.7,6.4-2.7l2.8,3.1c-1.1,1.4-2.5,2.5-4.2,3.2
				C507.4,233.6,505.5,233.9,503.4,233.7z M504.2,212.5c-1.5-0.1-2.8,0.3-3.8,1.3c-1,1-1.7,2.4-2.1,4.3l10.6,0.7l0-0.4
				c0-1.9-0.4-3.3-1.2-4.3C506.9,213.2,505.8,212.6,504.2,212.5z"/>
		</g>
		<g>
			<path class="st0" d="M259.4,512.8c3.6-1.2,6.8-1.4,9.5-0.5c2.7,0.9,4.5,2.8,5.5,5.6c0.9,2.8,0.7,5.2-0.8,7.4l2.6-0.6l1.6,4.8
				l-33.4,11.2l-1.8-5.3l12.1-4.1c-2.3-0.9-3.9-2.7-4.8-5.2c-1-2.9-0.7-5.5,0.9-7.8c1.6-2.3,4.3-4.2,8.1-5.5L259.4,512.8z
				 M260.7,518.2c-2.5,0.9-4.3,1.9-5.3,3.3c-1,1.3-1.2,2.8-0.6,4.6c0.8,2.3,2.3,3.6,4.6,3.8l9.7-3.3c1.7-1.6,2.2-3.6,1.4-5.9
				c-0.6-1.6-1.6-2.7-3.1-3.2c-1.5-0.5-3.6-0.3-6.1,0.5L260.7,518.2z"/>
			<path class="st0" d="M264.6,491.1c2.2,1.2,3.6,3.3,4.2,6.2c0.5,2.6,0.2,4.8-1.1,6.5c-1.3,1.7-3.3,2.8-6.3,3.4l-15.7,3.3l-1.1-5.5
				l15.7-3.2c3.1-0.6,4.4-2.2,3.8-4.8c-0.6-2.6-1.9-4.2-4-4.8l-17.4,3.6l-1.1-5.5l24.3-5l1.1,5.1L264.6,491.1z"/>
			<path class="st0" d="M234.3,484c-0.8,0.1-1.6-0.1-2.2-0.6c-0.6-0.5-1-1.2-1.1-2.2c-0.1-1,0.1-1.8,0.6-2.4c0.5-0.6,1.2-1,2-1.1
				c0.8-0.1,1.6,0.1,2.2,0.6c0.6,0.5,1,1.2,1.1,2.2c0.1,1-0.1,1.8-0.6,2.4C235.8,483.5,235.2,483.9,234.3,484z M264.7,474.5l0.7,5.5
				l-24.6,2.9l-0.7-5.5L264.7,474.5z"/>
			<path class="st0" d="M263.8,462.9l0.4,5.6l-35.1,2.2l-0.4-5.6L263.8,462.9z"/>
			<path class="st0" d="M250.7,458.3c-3.8-0.1-6.9-1-9.1-2.9c-2.3-1.8-3.4-4.2-3.3-7.2c0.1-2.6,1-4.7,2.9-6.3l-12.7-0.3l0.1-5.6
				l35.2,0.8l-0.1,5l-2.6,0.2c2,1.7,2.9,4,2.9,6.7c-0.1,2.9-1.3,5.2-3.7,7C257.9,457.6,254.7,458.4,250.7,458.3z M251.3,452.8
				c2.5,0.1,4.5-0.4,5.9-1.3c1.4-0.9,2.2-2.3,2.2-4.1c0.1-2.3-0.9-4-2.9-5.1L246,442c-2,1-3,2.6-3.1,4.9c0,1.8,0.6,3.2,2,4.2
				C246.3,452.2,248.5,452.7,251.3,452.8z"/>
		</g>
		<g>
			<path class="st0" d="M1311.9,319.7c3.2-2.1,6.2-3.1,9.1-2.9c2.9,0.2,5.2,1.5,6.8,4c1.5,2.2,1.9,4.5,1.2,6.8l10.6-7l3.1,4.6
				l-29.3,19.5l-2.8-4.2l2-1.6c-2.6-0.3-4.7-1.6-6.2-3.9c-1.6-2.4-1.9-5-1-7.8C1306.4,324.5,1308.5,322,1311.9,319.7z M1314.6,324.6
				c-2.1,1.4-3.5,2.9-4.1,4.5c-0.6,1.6-0.5,3.1,0.5,4.6c1.3,1.9,3,2.7,5.3,2.5l8.8-5.9c1.1-2,1-3.9-0.3-5.8c-1-1.5-2.4-2.3-4.1-2.3
				C1319,322.3,1317,323.1,1314.6,324.6z"/>
			<path class="st0" d="M1320.4,359c-1.6-3.1-1.9-6.2-0.9-9.2c1-3,3.1-5.3,6.4-6.9l0.6-0.3c2.2-1.1,4.4-1.7,6.6-1.7s4.1,0.5,5.9,1.5
				c1.7,1,3.1,2.5,4.1,4.4c1.5,3,1.7,5.8,0.6,8.4c-1.1,2.6-3.4,4.8-6.9,6.6l-2,1l-7.3-14.5c-1.8,1.1-2.9,2.4-3.4,4
				c-0.5,1.6-0.4,3.2,0.4,4.8c1.2,2.3,3,3.7,5.6,4.2l-1.2,4c-1.8-0.2-3.4-0.9-4.9-2C1322.5,362.3,1321.3,360.9,1320.4,359z
				 M1339.1,348.9c-0.7-1.4-1.7-2.2-3.1-2.6c-1.4-0.4-3-0.2-4.8,0.4l4.8,9.5l0.4-0.2c1.6-1,2.6-2,3.1-3.2
				C1339.9,351.5,1339.8,350.2,1339.1,348.9z"/>
			<path class="st0" d="M1345.5,387c-3.6,1.3-6.8,1.6-9.5,0.7c-2.7-0.9-4.6-2.7-5.6-5.4c-0.9-2.6-0.8-4.9,0.3-7.1l-11,4l-1.9-5.2
				l32.2-11.8l1.8,4.8l-2.3,1.1c2.4,0.9,4.1,2.6,5.1,5.2c1,2.8,0.8,5.5-0.7,7.8c-1.5,2.4-4.2,4.3-7.9,5.6L1345.5,387z M1344,381.7
				c2.3-0.9,4-2,5-3.4c1-1.4,1.2-3,0.6-4.7c-0.8-2.1-2.2-3.4-4.3-3.6l-10.3,3.8c-1.5,1.6-1.8,3.5-1,5.6c0.6,1.7,1.8,2.7,3.4,3.2
				C1339.1,382.9,1341.3,382.7,1344,381.7z"/>
			<path class="st0" d="M1336.5,400.9l-1.5-5.4l34-9.2l1.5,5.4L1336.5,400.9z"/>
			<path class="st0" d="M1350.2,402.8c2.4-0.4,4.6-0.3,6.7,0.3s3.8,1.7,5.1,3.2c1.3,1.5,2.2,3.4,2.6,5.6c0.6,3.3,0,6.2-1.8,8.6
				c-1.8,2.4-4.4,4-7.8,4.8l-1.3,0.3c-2.4,0.4-4.6,0.4-6.7-0.2c-2.1-0.6-3.8-1.6-5.1-3.2c-1.3-1.5-2.2-3.4-2.6-5.7
				c-0.6-3.4,0-6.4,2-8.9c1.9-2.5,4.8-4.1,8.6-4.7L1350.2,402.8z M1350.7,408.3c-2.5,0.5-4.4,1.3-5.6,2.6c-1.2,1.3-1.7,2.9-1.4,4.7
				c0.3,1.9,1.3,3.2,2.9,3.9s3.8,0.9,6.6,0.4c2.5-0.4,4.3-1.3,5.6-2.6c1.3-1.3,1.7-2.9,1.4-4.7c-0.3-1.8-1.3-3.1-2.9-3.9
				C1355.8,408,1353.6,407.8,1350.7,408.3z"/>
			<path class="st0" d="M1350.6,439.4l17.1,3.9l0.4,5.9l-29.1-8c-4.3-1.2-6.5-3.7-6.7-7.3c-0.1-0.8,0-1.7,0.2-2.7l4.3-0.3l0,1.1
				c0.1,1.4,0.4,2.4,1,3.1c0.6,0.7,1.5,1.2,2.7,1.5l2.2,0.7l24-10.3l0.4,6L1350.6,439.4z"/>
		</g>
		<g>
			<path class="st0" d="M1129.8,688.7c-0.4-2.6-0.2-5.1,0.5-7.4c0.7-2.3,2-4.1,3.7-5.6c1.7-1.4,3.8-2.3,6.3-2.7
				c3.6-0.6,6.8,0.2,9.4,2.2c2.6,2,4.3,4.9,5.1,8.8l0.2,1.4c0.4,2.7,0.3,5.1-0.5,7.4c-0.7,2.2-1.9,4.1-3.7,5.5
				c-1.7,1.4-3.8,2.3-6.3,2.7c-3.8,0.6-7-0.2-9.7-2.4c-2.7-2.2-4.3-5.4-5-9.6L1129.8,688.7z M1135.9,688.3c0.4,2.8,1.3,4.9,2.7,6.3
				c1.4,1.4,3.1,1.9,5.1,1.6s3.5-1.3,4.4-3.1c0.9-1.8,1.1-4.2,0.6-7.3c-0.4-2.7-1.3-4.8-2.7-6.2c-1.4-1.4-3.1-2-5.1-1.7
				c-2,0.3-3.4,1.3-4.4,3.1C1135.7,682.7,1135.5,685.1,1135.9,688.3z"/>
			<path class="st0" d="M1183.6,677.7c1.1,4.1,1.1,7.6-0.1,10.5c-1.2,2.9-3.3,4.8-6.4,5.7c-2.9,0.8-5.5,0.5-7.7-0.9l3.5,12.5
				l-5.9,1.6l-10.1-36.4l5.4-1.5l1,2.6c1.1-2.6,3.2-4.3,6.2-5.1c3.2-0.9,6.1-0.4,8.5,1.5c2.5,1.9,4.3,4.9,5.5,9.2L1183.6,677.7z
				 M1177.6,678.8c-0.7-2.6-1.8-4.6-3.3-5.8c-1.5-1.2-3.2-1.6-5.1-1.1c-2.4,0.7-3.9,2.1-4.4,4.4l3.2,11.7c1.6,1.7,3.7,2.3,6.1,1.6
				c1.9-0.5,3.1-1.7,3.8-3.5S1178.5,681.9,1177.6,678.8z"/>
			<path class="st0" d="M1205.5,684c-3.6,1.5-7,1.6-10.1,0.2c-3.2-1.3-5.5-3.9-7.1-7.7l-0.3-0.7c-1-2.5-1.5-5-1.3-7.3
				c0.2-2.4,0.9-4.5,2.2-6.3c1.3-1.8,3-3.2,5.2-4.1c3.4-1.4,6.5-1.4,9.3,0c2.8,1.4,5,4.1,6.6,8.1l0.9,2.3l-16.5,6.8
				c1,2,2.4,3.4,4.1,4.1c1.7,0.7,3.5,0.7,5.4-0.1c2.6-1.1,4.3-3,5-5.8l4.3,1.7c-0.4,1.9-1.3,3.6-2.6,5.2
				C1209.3,681.9,1207.6,683.1,1205.5,684z M1195.9,662.7c-1.6,0.6-2.6,1.7-3.1,3.2c-0.5,1.5-0.5,3.2,0,5.3l10.8-4.5l-0.2-0.4
				c-0.9-1.8-2-3.1-3.3-3.7C1198.9,662,1197.5,662,1195.9,662.7z"/>
			<path class="st0" d="M1224,650.9c-0.8,0.2-1.6,0.5-2.3,0.9c-2.5,1.2-3.7,3-3.7,5.4l8.2,16.7l-5.5,2.7l-12-24.5l5.2-2.6l1.5,2.7
				c0.3-2.8,1.6-4.7,4-5.9c0.8-0.4,1.5-0.6,2.1-0.6L1224,650.9z"/>
			<path class="st0" d="M1251.5,660.3c-0.5-0.3-1.1-0.9-1.9-1.9c-0.7,2.7-2.2,4.8-4.7,6.2c-2.4,1.4-4.7,1.8-7,1.3
				c-2.3-0.5-4-1.7-5.1-3.7c-1.4-2.5-1.6-5-0.5-7.4c1.1-2.4,3.4-4.6,6.9-6.6l3.3-1.9l-0.9-1.6c-0.7-1.2-1.6-2-2.7-2.4
				c-1.1-0.3-2.4-0.1-3.8,0.7c-1.2,0.7-2,1.6-2.5,2.6c-0.4,1-0.4,2,0.2,3l-5.3,3c-0.7-1.3-1-2.8-0.8-4.4c0.2-1.6,0.9-3.2,2-4.7
				c1.1-1.5,2.6-2.8,4.4-3.8c2.8-1.6,5.4-2.2,7.8-1.7c2.4,0.4,4.4,1.9,5.9,4.4l6.1,10.7c1.2,2.1,2.5,3.7,3.8,4.6l0.2,0.4
				L1251.5,660.3z M1243.5,659.8c1-0.6,1.9-1.4,2.5-2.5c0.6-1,0.9-2.1,0.9-3.3l-2.6-4.5l-2.9,1.6c-2,1.1-3.3,2.3-3.9,3.6
				c-0.6,1.3-0.5,2.5,0.2,3.8c0.6,1,1.4,1.6,2.4,1.9C1241.3,660.7,1242.3,660.5,1243.5,659.8z"/>
			<path class="st0" d="M1249.9,621.1l3.7,5.5l4-2.7l2.5,3.8l-4,2.7l8.5,12.6c0.6,0.9,1.2,1.4,1.8,1.5c0.6,0.2,1.3-0.1,2.2-0.7
				c0.6-0.4,1.1-0.9,1.6-1.4l2.7,3.9c-0.9,1.1-1.9,2-3,2.7c-3.9,2.6-7.3,1.8-10.2-2.5l-8.7-12.8l-3.7,2.5l-2.5-3.8l3.7-2.5l-3.7-5.5
				L1249.9,621.1z"/>
			<path class="st0" d="M1287.7,635.7c-3,2.4-6.2,3.5-9.6,3.1c-3.4-0.4-6.4-2.2-9-5.3l-0.5-0.6c-1.7-2.1-2.8-4.3-3.4-6.7
				c-0.5-2.3-0.4-4.5,0.3-6.7c0.7-2.1,2-3.9,3.8-5.4c2.9-2.3,5.9-3.2,8.9-2.7c3.1,0.6,6,2.5,8.7,5.9l1.6,1.9l-13.8,11.2
				c1.6,1.6,3.3,2.5,5.1,2.7c1.9,0.2,3.6-0.3,5.1-1.6c2.2-1.8,3.2-4.1,3.2-7l4.5,0.4c0.2,2-0.2,3.9-1,5.7S1289.5,634.3,1287.7,635.7
				z M1272.4,618c-1.3,1.1-2,2.4-2.1,3.9c-0.1,1.6,0.5,3.3,1.6,5.1l9.1-7.4l-0.3-0.4c-1.4-1.5-2.8-2.4-4.2-2.6
				C1275.1,616.5,1273.7,616.9,1272.4,618z"/>
		</g>
		<g>
			<path class="st0" d="M1038.3,216.7c-0.8,0.1-1.6,0.4-2.4,0.7c-2.6,1-4.1,2.6-4.2,5l6.3,17.6l-5.8,2.1l-9.2-25.7l5.5-2l1.2,2.8
				c0.6-2.7,2.1-4.5,4.6-5.4c0.8-0.3,1.5-0.4,2.2-0.4L1038.3,216.7z"/>
			<path class="st0" d="M1059.1,233.7c-3.7,1-7.1,0.7-10.1-1.1c-3-1.7-5-4.6-6-8.5l-0.2-0.7c-0.7-2.6-0.8-5.1-0.4-7.5
				c0.5-2.3,1.4-4.3,3-6c1.5-1.6,3.4-2.8,5.7-3.4c3.6-1,6.7-0.6,9.2,1.2c2.6,1.8,4.4,4.7,5.6,8.9l0.6,2.4l-17.2,4.6
				c0.8,2.1,2,3.7,3.6,4.6s3.4,1.1,5.3,0.6c2.7-0.7,4.6-2.4,5.7-5.1l4,2.2c-0.6,1.9-1.7,3.5-3.2,4.8
				C1063.2,232.2,1061.3,233.2,1059.1,233.7z M1052.3,211.4c-1.6,0.4-2.8,1.4-3.5,2.8c-0.7,1.4-0.9,3.2-0.6,5.3l11.3-3l-0.1-0.4
				c-0.7-1.9-1.6-3.3-2.8-4.1C1055.4,211.1,1053.9,210.9,1052.3,211.4z"/>
			<path class="st0" d="M1079.3,228.8l-6,1.1l-7.2-38.1l6-1.1L1079.3,228.8z"/>
			<path class="st0" d="M1096.3,227c-3.9,0.4-7.1-0.5-9.8-2.7c-2.7-2.2-4.2-5.3-4.6-9.3l-0.1-0.8c-0.3-2.7,0-5.2,0.8-7.4
				c0.8-2.2,2.1-4.1,3.9-5.4c1.8-1.4,3.8-2.2,6.1-2.4c3.7-0.4,6.7,0.5,8.9,2.6c2.3,2.1,3.6,5.4,4.1,9.7l0.3,2.5l-17.7,1.8
				c0.4,2.2,1.3,3.9,2.8,5.1c1.4,1.2,3.2,1.6,5.2,1.4c2.8-0.3,4.9-1.7,6.5-4.1l3.6,2.8c-0.9,1.7-2.2,3.1-4,4.2
				C1100.6,226.1,1098.6,226.7,1096.3,227z M1093.2,203.8c-1.7,0.2-3,0.9-3.9,2.2c-0.9,1.3-1.4,3-1.5,5.1l11.6-1.2l0-0.5
				c-0.3-2-1-3.5-2.1-4.5C1096.2,204,1094.9,203.6,1093.2,203.8z"/>
			<path class="st0" d="M1126,225.5c-0.3-0.5-0.5-1.4-0.7-2.6c-2,2-4.4,3-7.2,2.9c-2.7,0-5-0.9-6.7-2.4c-1.7-1.6-2.5-3.5-2.5-5.8
				c0-2.9,1.2-5.1,3.3-6.6c2.2-1.5,5.3-2.3,9.3-2.2l3.8,0.1l0-1.8c0-1.4-0.4-2.5-1.1-3.4c-0.8-0.9-2-1.3-3.6-1.3
				c-1.4,0-2.5,0.3-3.4,1c-0.9,0.7-1.4,1.6-1.4,2.6l-6.1-0.1c0-1.5,0.5-2.9,1.5-4.2c1-1.3,2.4-2.3,4.1-3c1.7-0.7,3.6-1.1,5.7-1
				c3.2,0,5.7,0.9,7.6,2.5s2.8,3.9,2.8,6.8l-0.2,12.3c0,2.5,0.3,4.4,0.9,5.9l0,0.4L1126,225.5z M1119.4,221c1.2,0,2.4-0.3,3.4-0.8
				c1.1-0.6,1.9-1.3,2.4-2.3l0.1-5.1l-3.3-0.1c-2.3,0-4,0.3-5.1,1.1c-1.2,0.8-1.7,1.9-1.8,3.3c0,1.2,0.4,2.1,1.1,2.8
				C1117,220.6,1118.1,221,1119.4,221z"/>
			<path class="st0" d="M1151.6,220.7c0.2-1.1-0.2-2-1-2.7c-0.8-0.7-2.2-1.4-4.2-2.1c-2-0.7-3.7-1.5-4.9-2.4c-2.8-1.9-4-4.2-3.7-7
				c0.3-2.3,1.6-4.1,3.8-5.4c2.2-1.3,4.8-1.7,7.8-1.3c3.2,0.4,5.7,1.6,7.5,3.5s2.5,4.1,2.1,6.6l-6.1-0.8c0.2-1.2-0.1-2.2-0.9-3.1
				c-0.8-0.9-1.9-1.4-3.3-1.6c-1.3-0.2-2.5,0-3.4,0.5s-1.5,1.3-1.6,2.3c-0.1,0.9,0.2,1.7,0.9,2.3c0.7,0.6,2.2,1.4,4.5,2.2
				c2.3,0.9,4.1,1.7,5.3,2.7c1.3,0.9,2.1,1.9,2.7,3c0.5,1.1,0.7,2.4,0.5,3.8c-0.3,2.4-1.6,4.3-3.8,5.5c-2.2,1.2-5,1.6-8.2,1.2
				c-2.2-0.3-4.1-1-5.8-2c-1.6-1-2.8-2.3-3.6-3.9c-0.8-1.5-1-3.1-0.8-4.7l5.9,0.8c-0.1,1.4,0.3,2.6,1.2,3.5c0.9,0.9,2.2,1.5,3.8,1.7
				c1.6,0.2,2.9,0.1,3.8-0.4C1150.9,222.4,1151.4,221.7,1151.6,220.7z"/>
			<path class="st0" d="M1171,233.2c-3.7-1-6.5-3-8.1-6c-1.7-3-2-6.5-0.9-10.4l0.2-0.7c0.7-2.6,1.9-4.8,3.4-6.6
				c1.6-1.8,3.4-3,5.6-3.7c2.1-0.7,4.3-0.7,6.6-0.1c3.6,1,6,2.9,7.4,5.7c1.3,2.8,1.4,6.3,0.3,10.5l-0.6,2.4l-17.2-4.7
				c-0.4,2.2-0.2,4.1,0.8,5.7c0.9,1.6,2.4,2.7,4.3,3.2c2.7,0.7,5.2,0.2,7.5-1.5l2.4,3.9c-1.5,1.3-3.2,2.1-5.2,2.5
				C1175.3,233.9,1173.2,233.8,1171,233.2z M1176.4,210.4c-1.6-0.4-3.1-0.2-4.4,0.6c-1.3,0.9-2.4,2.3-3.2,4.2l11.3,3.1l0.1-0.4
				c0.4-2,0.3-3.7-0.4-4.9C1179.2,211.7,1178,210.9,1176.4,210.4z"/>
		</g>
		<g>
			<path class="st0" d="M644.7,637.1c1-1.1,1.5-2.4,1.5-3.7s-0.5-2.5-1.4-3.4l3.8-4.3c1.2,1.2,2.1,2.6,2.5,4.4
				c0.4,1.7,0.4,3.5-0.1,5.3c-0.5,1.8-1.4,3.5-2.7,5c-2.5,2.8-5.5,4.3-8.8,4.3c-3.3,0-6.6-1.4-9.9-4.3l-0.5-0.4
				c-3.1-2.8-4.8-5.8-5.2-9.1c-0.4-3.3,0.7-6.4,3.3-9.3c2.2-2.4,4.6-3.8,7.4-4c2.8-0.3,5.3,0.6,7.7,2.6l-3.8,4.3
				c-1.2-1-2.5-1.4-3.9-1.4c-1.4,0.1-2.6,0.7-3.7,1.8c-1.3,1.5-1.8,3.1-1.4,4.9c0.4,1.8,1.6,3.6,3.8,5.6l0.7,0.7c2.2,2,4.2,3,6,3.2
				C641.8,639.2,643.4,638.6,644.7,637.1z"/>
			<path class="st0" d="M647.4,619.8c-2-1.8-3.4-3.8-4.3-6c-0.9-2.2-1.1-4.4-0.7-6.6c0.4-2.2,1.5-4.2,3.1-6.1
				c2.5-2.7,5.3-4.2,8.6-4.3c3.3-0.1,6.5,1,9.5,3.5l1.1,0.9c2,1.8,3.5,3.8,4.3,6c0.9,2.2,1.1,4.4,0.7,6.6c-0.4,2.2-1.5,4.3-3.1,6.1
				c-2.6,2.9-5.6,4.3-9,4.3c-3.5,0-6.8-1.4-10-4.2L647.4,619.8z M651.9,615.6c2.1,1.9,4.1,2.9,6.1,3.1c2,0.2,3.6-0.5,5-2
				c1.4-1.5,1.8-3.3,1.4-5.2c-0.4-1.9-1.8-3.9-4.1-6c-2.1-1.8-4.1-2.8-6.1-3c-2-0.2-3.7,0.5-5,2c-1.3,1.5-1.8,3.2-1.4,5.1
				C648.1,611.5,649.5,613.5,651.9,615.6z"/>
			<path class="st0" d="M661.6,583.9l2.5,2c-0.5-3.1,0.4-5.9,2.6-8.4c3.8-4.2,8.1-4.2,13.1,0l13.4,12l-4.1,4.6l-13.2-11.8
				c-1.3-1.2-2.5-1.7-3.6-1.7c-1.1,0-2.2,0.6-3.4,1.9c-1.6,1.8-2,4-1.2,6.4l14.5,12.9l-4.1,4.6l-20.3-18.2L661.6,583.9z"/>
			<path class="st0" d="M677.1,556.5l4.9,4.4l3.2-3.6l3.4,3l-3.2,3.6l11.4,10.1c0.8,0.7,1.5,1,2.1,1c0.6,0,1.3-0.4,2-1.2
				c0.5-0.5,0.9-1.1,1.2-1.8l3.5,3.2c-0.6,1.3-1.4,2.4-2.3,3.4c-3.1,3.5-6.6,3.5-10.5,0.1l-11.5-10.3l-3,3.3l-3.4-3l3-3.3l-4.9-4.4
				L677.1,556.5z"/>
			<path class="st0" d="M683.1,549.2c-0.7-0.6-1.1-1.4-1.2-2.2c-0.1-0.9,0.3-1.7,1-2.5c0.7-0.8,1.5-1.3,2.4-1.3s1.7,0.3,2.4,0.9
				c0.7,0.6,1.1,1.4,1.1,2.2c0.1,0.9-0.3,1.7-1,2.5c-0.7,0.8-1.5,1.3-2.4,1.3C684.5,550.1,683.7,549.8,683.1,549.2z M713,567.2
				l-4.1,4.6l-20.3-18.2l4.1-4.6L713,567.2z"/>
			<path class="st0" d="M700.9,539.8l2.5,2c-0.5-3.1,0.4-5.9,2.6-8.4c3.8-4.2,8.1-4.2,13.1,0l13.4,12l-4.1,4.6l-13.2-11.8
				c-1.3-1.2-2.5-1.7-3.6-1.7c-1.1,0-2.2,0.6-3.4,1.9c-1.6,1.8-2,4-1.2,6.4l14.5,12.9l-4.1,4.6L697,544.1L700.9,539.8z"/>
			<path class="st0" d="M745.6,526.7c0.4,2.8-0.5,5.4-2.7,7.8c-2,2.2-4.1,3.3-6.4,3.3c-2.3,0-4.7-1.1-7.1-3.3l-13.2-11.8l4.1-4.6
				l13.1,11.7c2.6,2.3,4.8,2.4,6.7,0.2c2-2.2,2.5-4.4,1.6-6.6l-14.6-13l4.1-4.6l20.3,18.2l-3.8,4.3L745.6,526.7z"/>
			<path class="st0" d="M744.6,511c-2-1.8-3.4-3.8-4.3-6c-0.9-2.2-1.1-4.4-0.7-6.6c0.4-2.2,1.5-4.2,3.1-6.1c2.5-2.7,5.3-4.2,8.6-4.3
				c3.3-0.1,6.5,1,9.5,3.5l1.1,0.9c2,1.8,3.5,3.8,4.3,6c0.9,2.2,1.1,4.4,0.7,6.6c-0.4,2.2-1.5,4.3-3.1,6.1c-2.6,2.9-5.6,4.3-9,4.3
				c-3.5,0-6.8-1.4-10-4.2L744.6,511z M749,506.8c2.1,1.9,4.1,2.9,6.1,3.1c2,0.2,3.6-0.5,5-2c1.4-1.5,1.8-3.3,1.4-5.2
				c-0.4-1.9-1.8-3.9-4.1-6c-2.1-1.8-4.1-2.8-6.1-3c-2-0.2-3.7,0.5-5,2c-1.3,1.5-1.8,3.2-1.4,5.1C745.3,502.7,746.7,504.7,749,506.8
				z"/>
			<path class="st0" d="M784.3,483.4c0.4,2.8-0.5,5.4-2.7,7.8c-2,2.2-4.1,3.3-6.4,3.3c-2.3,0-4.7-1.1-7.1-3.3l-13.2-11.8l4.1-4.6
				l13.1,11.7c2.6,2.3,4.8,2.4,6.7,0.2c2-2.2,2.5-4.4,1.6-6.6l-14.6-13l4.1-4.6l20.3,18.2l-3.8,4.3L784.3,483.4z"/>
			<path class="st0" d="M799,459.7c-0.8-0.7-1.7-0.9-2.8-0.7c-1,0.3-2.4,1.1-4.1,2.3c-1.7,1.3-3.3,2.2-4.7,2.8
				c-3.1,1.3-5.8,1-7.9-0.9c-1.8-1.6-2.6-3.6-2.4-6.1c0.1-2.5,1.2-4.9,3.3-7.2c2.2-2.4,4.5-3.9,7.1-4.3c2.5-0.4,4.8,0.2,6.7,1.9
				l-4.1,4.6c-0.9-0.8-1.9-1.1-3.1-1c-1.2,0.1-2.2,0.7-3.2,1.8c-0.9,1-1.4,2-1.5,3.1c-0.1,1,0.2,1.9,1,2.6c0.7,0.6,1.5,0.8,2.4,0.6
				c0.9-0.2,2.4-1.1,4.4-2.5c2-1.4,3.7-2.4,5.2-3c1.5-0.5,2.8-0.7,4-0.5c1.2,0.2,2.4,0.8,3.4,1.7c1.8,1.6,2.6,3.7,2.4,6.2
				c-0.2,2.5-1.4,5-3.6,7.5c-1.5,1.7-3.1,2.9-4.9,3.7c-1.8,0.8-3.5,1-5.2,0.8c-1.7-0.2-3.2-0.9-4.4-1.9l4-4.4c1.1,0.9,2.3,1.2,3.6,1
				c1.3-0.2,2.4-1,3.5-2.2c1.1-1.2,1.7-2.3,1.8-3.4C800.1,461.2,799.8,460.4,799,459.7z"/>
			<path class="st0" d="M800.5,418.3l4.9,4.4l3.2-3.6l3.4,3l-3.2,3.6l11.4,10.1c0.8,0.7,1.5,1,2.1,1c0.6,0,1.3-0.4,2-1.2
				c0.5-0.5,0.9-1.1,1.2-1.8l3.5,3.2c-0.6,1.3-1.4,2.4-2.3,3.4c-3.1,3.5-6.6,3.5-10.5,0.1l-11.5-10.3l-3,3.3l-3.4-3l3-3.3l-4.9-4.4
				L800.5,418.3z"/>
			<path class="st0" d="M840.5,425.2c-2.6,2.9-5.6,4.4-9,4.6c-3.4,0.2-6.7-1.1-9.7-3.8l-0.6-0.5c-2-1.8-3.5-3.8-4.4-6
				c-0.9-2.2-1.2-4.4-0.8-6.6c0.4-2.2,1.3-4.2,2.9-5.9c2.5-2.8,5.3-4.1,8.4-4.1c3.1,0.1,6.3,1.5,9.5,4.4l1.8,1.6l-11.9,13.3
				c1.8,1.4,3.6,2,5.5,1.9c1.9-0.1,3.5-0.9,4.8-2.4c1.9-2.1,2.5-4.6,2-7.4l4.6-0.4c0.5,1.9,0.5,3.8-0.1,5.8
				C843,421.7,842,423.5,840.5,425.2z M822.6,410.1c-1.1,1.3-1.6,2.7-1.4,4.2c0.2,1.6,1,3.1,2.3,4.8l7.8-8.7l-0.3-0.3
				c-1.6-1.3-3.1-1.9-4.6-1.9C825,408.2,823.7,408.9,822.6,410.1z"/>
			<path class="st0" d="M855.2,396.8c-0.8-0.7-1.7-0.9-2.8-0.7c-1,0.3-2.4,1.1-4.1,2.3c-1.7,1.3-3.3,2.2-4.7,2.8
				c-3.1,1.3-5.8,1-7.9-0.9c-1.8-1.6-2.6-3.6-2.4-6.1c0.1-2.5,1.2-4.9,3.3-7.2c2.2-2.4,4.5-3.9,7.1-4.3c2.5-0.4,4.8,0.2,6.7,1.9
				l-4.1,4.6c-0.9-0.8-1.9-1.1-3.1-1c-1.2,0.1-2.2,0.7-3.2,1.8c-0.9,1-1.4,2-1.5,3.1c-0.1,1,0.2,1.9,1,2.6c0.7,0.6,1.5,0.8,2.4,0.6
				c0.9-0.2,2.4-1.1,4.4-2.5c2-1.4,3.7-2.4,5.2-3c1.5-0.5,2.8-0.7,4-0.5c1.2,0.2,2.4,0.8,3.4,1.7c1.8,1.6,2.6,3.7,2.4,6.2
				c-0.2,2.5-1.4,5-3.6,7.5c-1.5,1.7-3.1,2.9-4.9,3.7c-1.8,0.8-3.5,1-5.2,0.8c-1.7-0.2-3.2-0.9-4.4-1.9l4-4.4c1.1,0.9,2.3,1.2,3.6,1
				c1.3-0.2,2.4-1,3.5-2.2c1.1-1.2,1.7-2.3,1.8-3.4C856.3,398.3,856,397.4,855.2,396.8z"/>
			<path class="st0" d="M848.1,364.9l4.9,4.4l3.2-3.6l3.4,3l-3.2,3.6l11.4,10.1c0.8,0.7,1.5,1,2.1,1c0.6,0,1.3-0.4,2-1.2
				c0.5-0.5,0.9-1.1,1.2-1.8l3.5,3.2c-0.6,1.3-1.4,2.4-2.3,3.4c-3.1,3.5-6.6,3.5-10.5,0.1l-11.5-10.3l-3,3.3l-3.4-3l3-3.3l-4.9-4.4
				L848.1,364.9z"/>
			<path class="st0" d="M854.1,357.5c-0.7-0.6-1.1-1.4-1.2-2.2c-0.1-0.9,0.3-1.7,1-2.5s1.5-1.3,2.4-1.3c0.9,0,1.7,0.3,2.4,0.9
				c0.7,0.6,1.1,1.4,1.1,2.2c0.1,0.9-0.3,1.7-1,2.5c-0.7,0.8-1.5,1.3-2.4,1.3C855.6,358.5,854.8,358.2,854.1,357.5z M884.1,375.6
				l-4.1,4.6L859.7,362l4.1-4.6L884.1,375.6z"/>
			<path class="st0" d="M872,348.2l2.5,2c-0.5-3.1,0.4-5.9,2.6-8.4c3.8-4.2,8.1-4.2,13.1,0l13.4,12l-4.1,4.6l-13.2-11.8
				c-1.3-1.2-2.5-1.7-3.6-1.7c-1.1,0-2.2,0.6-3.4,1.9c-1.6,1.8-2,4-1.2,6.4l14.5,12.9l-4.1,4.6l-20.3-18.2L872,348.2z"/>
			<path class="st0" d="M896.6,340.8c-3.2-2.8-5-5.8-5.6-9c-0.6-3.2,0.3-6,2.4-8.4c2.1-2.3,4.5-3.4,7.3-3.3l-1.9-2l3.7-4.1
				l19.7,17.6c2.7,2.4,4,5.1,4.1,8.1c0.1,3-1.2,6-3.7,8.8c-1.3,1.5-2.9,2.7-4.8,3.5c-1.9,0.9-3.7,1.2-5.3,1.1l-0.8-4.6
				c2.9,0.1,5.3-0.9,7.1-3c1.4-1.5,2-3.1,2-4.7c0-1.6-0.9-3.1-2.4-4.5l-1.4-1.2c0.3,2.6-0.5,5-2.5,7.2c-2.1,2.4-4.8,3.5-8.1,3.3
				C903.3,345.3,900,343.8,896.6,340.8z M901.1,336.6c2,1.8,4,2.8,5.9,3.1c1.9,0.2,3.5-0.4,4.9-1.9c1.6-1.8,2.1-3.9,1.3-6.2l-9-8
				c-2.3-0.5-4.3,0.2-5.9,2c-1.3,1.5-1.8,3.2-1.3,5.1C897.4,332.5,898.8,334.5,901.1,336.6z"/>
		</g>
	</g>
</g>
<g id="Monitor_body_text_copy">
</g>
<g id="Monitor">
</g>
<g id="Monitor_1_">
</g>
<g id="Operate_body_text_copy_2">
</g>
<g id="Operate">
</g>
<g id="Operate_1_">
</g>
<g id="Deploy_1_">
</g>
<g id="release">
</g>
<g id="Test_1_">
</g>
<g id="Build">
</g>
<g id="Code_1_">
</g>
<g id="Plan_1_">
</g>
</svg>
